<svg width="134" height="73" viewBox="0 0 134 73" fill="none" xmlns="http://www.w3.org/2000/svg">
<path d="M79.4444 9.11111V3.77778C79.4444 3.30628 79.2571 2.8541 78.9237 2.5207C78.5903 2.1873 78.1382 2 77.6667 2H54.5556C53.6126 2 52.7082 2.3746 52.0414 3.0414C51.3746 3.70819 51 4.61256 51 5.55556C51 6.49855 51.3746 7.40292 52.0414 8.06971C52.7082 8.73651 53.6126 9.11111 54.5556 9.11111H81.2222C81.6937 9.11111 82.1459 9.29841 82.4793 9.63181C82.8127 9.96521 83 10.4174 83 10.8889V18M83 18H77.6667C76.7237 18 75.8193 18.3746 75.1525 19.0414C74.4857 19.7082 74.1111 20.6126 74.1111 21.5556C74.1111 22.4985 74.4857 23.4029 75.1525 24.0697C75.8193 24.7365 76.7237 25.1111 77.6667 25.1111H83C83.4715 25.1111 83.9237 24.9238 84.2571 24.5904C84.5905 24.257 84.7778 23.8048 84.7778 23.3333V19.7778C84.7778 19.3063 84.5905 18.8541 84.2571 18.5207C83.9237 18.1873 83.4715 18 83 18Z" stroke="#F5F1E9" stroke-width="2.66667" stroke-linecap="round" stroke-linejoin="round"/>
<path d="M51 5.5556V30.4445C51 31.3875 51.3746 32.2919 52.0414 32.9586C52.7082 33.6254 53.6126 34 54.5556 34H81.2222C81.6937 34 82.1459 33.8127 82.4793 33.4793C82.8127 33.146 83 32.6938 83 32.2223V25.1112" stroke="#F5F1E9" stroke-width="2.66667" stroke-linecap="round" stroke-linejoin="round"/>
<path d="M1.72159 67V49.5455H8.26705C9.60795 49.5455 10.733 49.7955 11.642 50.2955C12.5568 50.7955 13.2472 51.483 13.7131 52.358C14.1847 53.2273 14.4205 54.2159 14.4205 55.3239C14.4205 56.4432 14.1847 57.4375 13.7131 58.3068C13.2415 59.1761 12.5455 59.8608 11.625 60.3608C10.7045 60.8551 9.57102 61.1023 8.22443 61.1023H3.88636V58.5028H7.7983C8.58239 58.5028 9.22443 58.3665 9.72443 58.0938C10.2244 57.821 10.5938 57.446 10.8324 56.9688C11.0767 56.4915 11.1989 55.9432 11.1989 55.3239C11.1989 54.7045 11.0767 54.1591 10.8324 53.6875C10.5938 53.2159 10.2216 52.8494 9.71591 52.5881C9.21591 52.321 8.57102 52.1875 7.78125 52.1875H4.88352V67H1.72159ZM16.5505 67V53.9091H19.542V56.0909H19.6784C19.917 55.3352 20.3261 54.7528 20.9057 54.3438C21.4909 53.929 22.1585 53.7216 22.9085 53.7216C23.0789 53.7216 23.2693 53.7301 23.4795 53.7472C23.6954 53.7585 23.8744 53.7784 24.0164 53.8068V56.6449C23.8858 56.5994 23.6784 56.5597 23.3943 56.5256C23.1159 56.4858 22.846 56.4659 22.5846 56.4659C22.0221 56.4659 21.5164 56.5881 21.0676 56.8324C20.6244 57.071 20.275 57.4034 20.0193 57.8295C19.7636 58.2557 19.6358 58.7472 19.6358 59.304V67H16.5505ZM30.8426 67.2557C29.5301 67.2557 28.3965 66.983 27.442 66.4375C26.4931 65.8864 25.763 65.108 25.2516 64.1023C24.7403 63.0909 24.4846 61.9006 24.4846 60.5312C24.4846 59.1847 24.7403 58.0028 25.2516 56.9858C25.7687 55.9631 26.4903 55.1676 27.4164 54.5994C28.3426 54.0256 29.4306 53.7386 30.6806 53.7386C31.4874 53.7386 32.2488 53.8693 32.9647 54.1307C33.6863 54.3864 34.3227 54.7841 34.8738 55.3239C35.4306 55.8636 35.8681 56.5511 36.1863 57.3864C36.5045 58.2159 36.6636 59.2045 36.6636 60.3523V61.2983H25.9335V59.2188H33.7062C33.7005 58.6278 33.5727 58.1023 33.3227 57.642C33.0727 57.1761 32.7232 56.8097 32.2744 56.5426C31.8312 56.2756 31.3141 56.142 30.7232 56.142C30.0926 56.142 29.5386 56.2955 29.0613 56.6023C28.584 56.9034 28.2119 57.3011 27.9448 57.7955C27.6835 58.2841 27.5499 58.821 27.5443 59.4062V61.2216C27.5443 61.983 27.6835 62.6364 27.9619 63.1818C28.2403 63.7216 28.6295 64.1364 29.1295 64.4261C29.6295 64.7102 30.2147 64.8523 30.8852 64.8523C31.334 64.8523 31.7403 64.7898 32.1039 64.6648C32.4676 64.5341 32.7829 64.3438 33.0499 64.0938C33.317 63.8438 33.5187 63.5341 33.6551 63.1648L36.5357 63.4886C36.3539 64.25 36.0073 64.9148 35.496 65.483C34.9903 66.0455 34.3426 66.483 33.5528 66.7955C32.763 67.1023 31.8596 67.2557 30.8426 67.2557ZM44.5039 67.2557C43.1971 67.2557 42.0749 66.9688 41.1374 66.3949C40.2056 65.821 39.4868 65.0284 38.9812 64.017C38.4812 63 38.2312 61.8295 38.2312 60.5057C38.2312 59.1761 38.4868 58.0028 38.9982 56.9858C39.5096 55.9631 40.2312 55.1676 41.163 54.5994C42.1005 54.0256 43.2084 53.7386 44.4868 53.7386C45.5493 53.7386 46.4897 53.9347 47.3079 54.3267C48.1317 54.7131 48.788 55.2614 49.2766 55.9716C49.7653 56.6761 50.0437 57.5 50.1118 58.4432H47.163C47.0437 57.8125 46.7596 57.2869 46.3107 56.8665C45.8675 56.4403 45.2738 56.2273 44.5295 56.2273C43.8988 56.2273 43.3448 56.3977 42.8675 56.7386C42.3903 57.0739 42.0181 57.5568 41.7511 58.1875C41.4897 58.8182 41.359 59.5739 41.359 60.4545C41.359 61.3466 41.4897 62.1136 41.7511 62.7557C42.0124 63.392 42.3789 63.8835 42.8505 64.2301C43.3278 64.571 43.8874 64.7415 44.5295 64.7415C44.984 64.7415 45.3903 64.6562 45.7482 64.4858C46.1118 64.3097 46.4158 64.0568 46.6601 63.7273C46.9045 63.3977 47.0721 62.9972 47.163 62.5256H50.1118C50.038 63.4517 49.7653 64.2727 49.2937 64.9886C48.8221 65.6989 48.18 66.2557 47.3675 66.6591C46.555 67.0568 45.6005 67.2557 44.5039 67.2557ZM43.6175 66.9318H45.288L45.1516 67.6562C45.6857 67.7358 46.1374 67.9403 46.5067 68.2699C46.8817 68.6051 47.0692 69.0852 47.0692 69.7102C47.0749 70.517 46.7141 71.1648 45.9868 71.6534C45.2596 72.142 44.2226 72.3864 42.8761 72.3864L42.842 70.8693C43.4954 70.8693 44.0153 70.7813 44.4016 70.6051C44.788 70.4347 44.984 70.1619 44.9897 69.7869C45.0011 69.4233 44.8647 69.1563 44.5806 68.9858C44.3022 68.821 43.859 68.7074 43.2511 68.6449L43.6175 66.9318ZM57.8755 67.2557C56.597 67.2557 55.4891 66.9744 54.5516 66.4119C53.6141 65.8494 52.8868 65.0625 52.3698 64.0511C51.8584 63.0398 51.6027 61.858 51.6027 60.5057C51.6027 59.1534 51.8584 57.9687 52.3698 56.9517C52.8868 55.9347 53.6141 55.1449 54.5516 54.5824C55.4891 54.0199 56.597 53.7386 57.8755 53.7386C59.1539 53.7386 60.2618 54.0199 61.1993 54.5824C62.1368 55.1449 62.8613 55.9347 63.3726 56.9517C63.8897 57.9687 64.1482 59.1534 64.1482 60.5057C64.1482 61.858 63.8897 63.0398 63.3726 64.0511C62.8613 65.0625 62.1368 65.8494 61.1993 66.4119C60.2618 66.9744 59.1539 67.2557 57.8755 67.2557ZM57.8925 64.7841C58.5857 64.7841 59.1652 64.5937 59.6311 64.2131C60.097 63.8267 60.4436 63.3097 60.6709 62.6619C60.9039 62.0142 61.0203 61.2926 61.0203 60.4972C61.0203 59.696 60.9039 58.9716 60.6709 58.3239C60.4436 57.6705 60.097 57.1506 59.6311 56.7642C59.1652 56.3778 58.5857 56.1847 57.8925 56.1847C57.1823 56.1847 56.5914 56.3778 56.1198 56.7642C55.6539 57.1506 55.3044 57.6705 55.0715 58.3239C54.8442 58.9716 54.7306 59.696 54.7306 60.4972C54.7306 61.2926 54.8442 62.0142 55.0715 62.6619C55.3044 63.3097 55.6539 63.8267 56.1198 64.2131C56.5914 64.5937 57.1823 64.7841 57.8925 64.7841ZM78.7826 49.5455H81.919V61.8182C81.9133 62.9432 81.6747 63.9119 81.2031 64.7244C80.7315 65.5312 80.0724 66.1534 79.2258 66.5909C78.3849 67.0227 77.4048 67.2386 76.2855 67.2386C75.2628 67.2386 74.3423 67.0568 73.5241 66.6932C72.7116 66.3239 72.0667 65.7784 71.5895 65.0568C71.1122 64.3352 70.8736 63.4375 70.8736 62.3636H74.0184C74.0241 62.8352 74.1264 63.2415 74.3253 63.5824C74.5298 63.9233 74.8111 64.1847 75.169 64.3665C75.527 64.5483 75.9389 64.6392 76.4048 64.6392C76.9105 64.6392 77.3395 64.5341 77.6917 64.3239C78.044 64.108 78.3111 63.7898 78.4929 63.3693C78.6804 62.9489 78.777 62.4318 78.7826 61.8182V49.5455ZM93.0768 61.4943V53.9091H96.162V67H93.1705V64.6733H93.0342C92.7387 65.4062 92.2529 66.0057 91.5768 66.4716C90.9063 66.9375 90.0796 67.1705 89.0967 67.1705C88.2387 67.1705 87.4802 66.9801 86.8211 66.5994C86.1677 66.2131 85.6563 65.6534 85.287 64.9205C84.9177 64.1818 84.733 63.2898 84.733 62.2443V53.9091H87.8183V61.767C87.8183 62.5966 88.0455 63.2557 88.5001 63.7443C88.9546 64.233 89.5512 64.4773 90.2899 64.4773C90.7444 64.4773 91.1847 64.3665 91.6109 64.1449C92.037 63.9233 92.3864 63.5938 92.6592 63.1562C92.9376 62.7131 93.0768 62.1591 93.0768 61.4943ZM109.201 57.3693L106.389 57.6761C106.309 57.392 106.17 57.125 105.971 56.875C105.778 56.625 105.517 56.4233 105.187 56.2699C104.857 56.1165 104.454 56.0398 103.977 56.0398C103.335 56.0398 102.795 56.179 102.357 56.4574C101.926 56.7358 101.713 57.0966 101.718 57.5398C101.713 57.9205 101.852 58.2301 102.136 58.4688C102.426 58.7074 102.903 58.9034 103.568 59.0568L105.801 59.5341C107.039 59.8011 107.96 60.2244 108.562 60.804C109.17 61.3835 109.477 62.142 109.482 63.0795C109.477 63.9034 109.235 64.6307 108.758 65.2614C108.286 65.8864 107.63 66.375 106.789 66.7273C105.948 67.0795 104.982 67.2557 103.892 67.2557C102.289 67.2557 100.999 66.9205 100.022 66.25C99.0449 65.5739 98.4626 64.6335 98.2751 63.429L101.284 63.1392C101.42 63.7301 101.71 64.1761 102.153 64.4773C102.596 64.7784 103.173 64.929 103.883 64.929C104.616 64.929 105.204 64.7784 105.647 64.4773C106.096 64.1761 106.321 63.804 106.321 63.3608C106.321 62.9858 106.176 62.6761 105.886 62.4318C105.602 62.1875 105.159 62 104.556 61.8693L102.323 61.4006C101.068 61.1392 100.139 60.6989 99.5364 60.0795C98.9342 59.4545 98.6359 58.6648 98.6415 57.7102C98.6359 56.9034 98.8546 56.2045 99.2978 55.6136C99.7467 55.017 100.369 54.5568 101.164 54.233C101.965 53.9034 102.889 53.7386 103.934 53.7386C105.468 53.7386 106.676 54.0653 107.556 54.7188C108.443 55.3722 108.991 56.2557 109.201 57.3693ZM118.083 53.9091V56.2955H110.558V53.9091H118.083ZM112.416 50.7727H115.501V63.0625C115.501 63.4773 115.564 63.7955 115.689 64.017C115.819 64.233 115.99 64.3807 116.2 64.4602C116.41 64.5398 116.643 64.5795 116.899 64.5795C117.092 64.5795 117.268 64.5653 117.427 64.5369C117.592 64.5085 117.717 64.483 117.802 64.4602L118.322 66.8722C118.157 66.929 117.921 66.9915 117.615 67.0597C117.314 67.1278 116.944 67.1676 116.507 67.179C115.734 67.2017 115.038 67.0852 114.419 66.8295C113.799 66.5682 113.308 66.1648 112.944 65.6193C112.586 65.0739 112.41 64.392 112.416 63.5739V50.7727ZM125.753 67.2557C124.475 67.2557 123.367 66.9744 122.429 66.4119C121.492 65.8494 120.765 65.0625 120.248 64.0511C119.736 63.0398 119.481 61.858 119.481 60.5057C119.481 59.1534 119.736 57.9687 120.248 56.9517C120.765 55.9347 121.492 55.1449 122.429 54.5824C123.367 54.0199 124.475 53.7386 125.753 53.7386C127.032 53.7386 128.14 54.0199 129.077 54.5824C130.015 55.1449 130.739 55.9347 131.25 56.9517C131.767 57.9687 132.026 59.1534 132.026 60.5057C132.026 61.858 131.767 63.0398 131.25 64.0511C130.739 65.0625 130.015 65.8494 129.077 66.4119C128.14 66.9744 127.032 67.2557 125.753 67.2557ZM125.77 64.7841C126.463 64.7841 127.043 64.5937 127.509 64.2131C127.975 63.8267 128.321 63.3097 128.549 62.6619C128.782 62.0142 128.898 61.2926 128.898 60.4972C128.898 59.696 128.782 58.9716 128.549 58.3239C128.321 57.6705 127.975 57.1506 127.509 56.7642C127.043 56.3778 126.463 56.1847 125.77 56.1847C125.06 56.1847 124.469 56.3778 123.998 56.7642C123.532 57.1506 123.182 57.6705 122.949 58.3239C122.722 58.9716 122.608 59.696 122.608 60.4972C122.608 61.2926 122.722 62.0142 122.949 62.6619C123.182 63.3097 123.532 63.8267 123.998 64.2131C124.469 64.5937 125.06 64.7841 125.77 64.7841Z" fill="#F5F1E9"/>
</svg>
