<svg width="251" height="76" viewBox="0 0 251 76" fill="none" xmlns="http://www.w3.org/2000/svg">
<path d="M16.0653 55.5455V73H13.2528L5.02841 61.1108H4.88352V73H1.72159V55.5455H4.55114L12.767 67.4432H12.9205V55.5455H16.0653ZM24.6045 73.2557C23.3261 73.2557 22.2182 72.9744 21.2807 72.4119C20.3432 71.8494 19.6159 71.0625 19.0988 70.0511C18.5875 69.0398 18.3318 67.858 18.3318 66.5057C18.3318 65.1534 18.5875 63.9687 19.0988 62.9517C19.6159 61.9347 20.3432 61.1449 21.2807 60.5824C22.2182 60.0199 23.3261 59.7386 24.6045 59.7386C25.8829 59.7386 26.9909 60.0199 27.9284 60.5824C28.8659 61.1449 29.5903 61.9347 30.1017 62.9517C30.6187 63.9687 30.8772 65.1534 30.8772 66.5057C30.8772 67.858 30.6187 69.0398 30.1017 70.0511C29.5903 71.0625 28.8659 71.8494 27.9284 72.4119C26.9909 72.9744 25.8829 73.2557 24.6045 73.2557ZM24.6216 70.7841C25.3147 70.7841 25.8943 70.5937 26.3602 70.2131C26.8261 69.8267 27.1727 69.3097 27.4 68.6619C27.6329 68.0142 27.7494 67.2926 27.7494 66.4972C27.7494 65.696 27.6329 64.9716 27.4 64.3239C27.1727 63.6705 26.8261 63.1506 26.3602 62.7642C25.8943 62.3778 25.3147 62.1847 24.6216 62.1847C23.9113 62.1847 23.3204 62.3778 22.8488 62.7642C22.3829 63.1506 22.0335 63.6705 21.8005 64.3239C21.5733 64.9716 21.4596 65.696 21.4596 66.4972C21.4596 67.2926 21.5733 68.0142 21.8005 68.6619C22.0335 69.3097 22.3829 69.8267 22.8488 70.2131C23.3204 70.5937 23.9113 70.7841 24.6216 70.7841ZM44.2637 59.9091L39.6018 73H36.1927L31.5308 59.9091H34.8205L37.8291 69.6335H37.9654L40.9825 59.9091H44.2637ZM45.9187 73V59.9091H49.0039V73H45.9187ZM47.4698 58.0511C46.9812 58.0511 46.5607 57.8892 46.2084 57.5653C45.8562 57.2358 45.68 56.8409 45.68 56.3807C45.68 55.9148 45.8562 55.5199 46.2084 55.196C46.5607 54.8665 46.9812 54.7017 47.4698 54.7017C47.9641 54.7017 48.3846 54.8665 48.7312 55.196C49.0834 55.5199 49.2596 55.9148 49.2596 56.3807C49.2596 56.8409 49.0834 57.2358 48.7312 57.5653C48.3846 57.8892 47.9641 58.0511 47.4698 58.0511ZM56.5544 73.2301C55.526 73.2301 54.6056 72.9659 53.7931 72.4375C52.9806 71.9091 52.3385 71.142 51.8669 70.1364C51.3953 69.1307 51.1595 67.9091 51.1595 66.4716C51.1595 65.017 51.3982 63.7898 51.8755 62.7898C52.3584 61.7841 53.009 61.0256 53.8272 60.5142C54.6453 59.9972 55.5573 59.7386 56.563 59.7386C57.33 59.7386 57.9607 59.8693 58.455 60.1307C58.9493 60.3864 59.3414 60.696 59.6311 61.0597C59.9209 61.4176 60.1453 61.7557 60.3044 62.0739H60.4323V55.5455H63.526V73H60.4919V70.9375H60.3044C60.1453 71.2557 59.9152 71.5937 59.6141 71.9517C59.313 72.304 58.9152 72.6051 58.4209 72.8551C57.9266 73.1051 57.3044 73.2301 56.5544 73.2301ZM57.4152 70.6989C58.0686 70.6989 58.6255 70.5227 59.0857 70.1705C59.5459 69.8125 59.8953 69.3153 60.134 68.679C60.3726 68.0426 60.4919 67.3011 60.4919 66.4545C60.4919 65.608 60.3726 64.8722 60.134 64.2472C59.901 63.6222 59.5544 63.1364 59.0942 62.7898C58.6397 62.4432 58.08 62.2699 57.4152 62.2699C56.7277 62.2699 56.1539 62.4489 55.6936 62.8068C55.2334 63.1648 54.8868 63.6591 54.6539 64.2898C54.4209 64.9205 54.3044 65.642 54.3044 66.4545C54.3044 67.2727 54.4209 68.0028 54.6539 68.6449C54.8925 69.2812 55.2419 69.7841 55.7022 70.1534C56.1681 70.517 56.7391 70.6989 57.4152 70.6989ZM70.1007 73.2642C69.2712 73.2642 68.524 73.1165 67.8592 72.821C67.2001 72.5199 66.6774 72.0767 66.291 71.4915C65.9104 70.9062 65.72 70.1847 65.72 69.3267C65.72 68.5881 65.8564 67.9773 66.1291 67.4943C66.4018 67.0114 66.774 66.625 67.2456 66.3352C67.7172 66.0455 68.2484 65.8267 68.8393 65.679C69.4359 65.5256 70.0524 65.4148 70.6888 65.3466C71.4558 65.267 72.078 65.196 72.5553 65.1335C73.0325 65.0653 73.3791 64.9631 73.595 64.8267C73.8166 64.6847 73.9274 64.4659 73.9274 64.1705V64.1193C73.9274 63.4773 73.7371 62.9801 73.3564 62.6278C72.9757 62.2756 72.4274 62.0994 71.7115 62.0994C70.9558 62.0994 70.3564 62.2642 69.9132 62.5938C69.4757 62.9233 69.1803 63.3125 69.0268 63.7614L66.1462 63.3523C66.3734 62.5568 66.7484 61.892 67.2712 61.358C67.7939 60.8182 68.4331 60.4148 69.1888 60.1477C69.9445 59.875 70.7797 59.7386 71.6945 59.7386C72.3251 59.7386 72.953 59.8125 73.578 59.9602C74.203 60.108 74.774 60.3523 75.2911 60.6932C75.8081 61.0284 76.2229 61.4858 76.5354 62.0653C76.8536 62.6449 77.0126 63.3693 77.0126 64.2386V73H74.0467V71.2017H73.9445C73.757 71.5653 73.4928 71.9062 73.1518 72.2244C72.8166 72.5369 72.3933 72.7898 71.882 72.983C71.3763 73.1705 70.7825 73.2642 70.1007 73.2642ZM70.9018 70.9972C71.5212 70.9972 72.0581 70.875 72.5126 70.6307C72.9672 70.3807 73.3166 70.0511 73.5609 69.642C73.8109 69.233 73.9359 68.7869 73.9359 68.304V66.7614C73.8393 66.8409 73.6746 66.9148 73.4416 66.983C73.2143 67.0511 72.9587 67.1108 72.6746 67.1619C72.3905 67.2131 72.1092 67.2585 71.8308 67.2983C71.5524 67.3381 71.3109 67.3722 71.1064 67.4006C70.6462 67.4631 70.2342 67.5653 69.8706 67.7074C69.507 67.8494 69.22 68.0483 69.0098 68.304C68.7996 68.554 68.6945 68.8778 68.6945 69.2756C68.6945 69.8438 68.9018 70.2727 69.3166 70.5625C69.7314 70.8523 70.2598 70.9972 70.9018 70.9972ZM84.4929 73.2301C83.4645 73.2301 82.544 72.9659 81.7315 72.4375C80.919 71.9091 80.277 71.142 79.8054 70.1364C79.3338 69.1307 79.098 67.9091 79.098 66.4716C79.098 65.017 79.3366 63.7898 79.8139 62.7898C80.2968 61.7841 80.9474 61.0256 81.7656 60.5142C82.5838 59.9972 83.4957 59.7386 84.5014 59.7386C85.2684 59.7386 85.8991 59.8693 86.3934 60.1307C86.8878 60.3864 87.2798 60.696 87.5696 61.0597C87.8593 61.4176 88.0838 61.7557 88.2429 62.0739H88.3707V55.5455H91.4645V73H88.4304V70.9375H88.2429C88.0838 71.2557 87.8537 71.5937 87.5525 71.9517C87.2514 72.304 86.8537 72.6051 86.3593 72.8551C85.865 73.1051 85.2429 73.2301 84.4929 73.2301ZM85.3537 70.6989C86.0071 70.6989 86.5639 70.5227 87.0241 70.1705C87.4843 69.8125 87.8338 69.3153 88.0724 68.679C88.3111 68.0426 88.4304 67.3011 88.4304 66.4545C88.4304 65.608 88.3111 64.8722 88.0724 64.2472C87.8395 63.6222 87.4929 63.1364 87.0326 62.7898C86.5781 62.4432 86.0184 62.2699 85.3537 62.2699C84.6662 62.2699 84.0923 62.4489 83.6321 62.8068C83.1718 63.1648 82.8253 63.6591 82.5923 64.2898C82.3593 64.9205 82.2429 65.642 82.2429 66.4545C82.2429 67.2727 82.3593 68.0028 82.5923 68.6449C82.8309 69.2812 83.1804 69.7841 83.6406 70.1534C84.1065 70.517 84.6775 70.6989 85.3537 70.6989ZM100.068 73.2557C98.7551 73.2557 97.6215 72.983 96.667 72.4375C95.7181 71.8864 94.988 71.108 94.4766 70.1023C93.9653 69.0909 93.7096 67.9006 93.7096 66.5312C93.7096 65.1847 93.9653 64.0028 94.4766 62.9858C94.9937 61.9631 95.7153 61.1676 96.6414 60.5994C97.5676 60.0256 98.6556 59.7386 99.9056 59.7386C100.712 59.7386 101.474 59.8693 102.19 60.1307C102.911 60.3864 103.548 60.7841 104.099 61.3239C104.656 61.8636 105.093 62.5511 105.411 63.3864C105.729 64.2159 105.889 65.2045 105.889 66.3523V67.2983H95.1585V65.2188H102.931C102.926 64.6278 102.798 64.1023 102.548 63.642C102.298 63.1761 101.948 62.8097 101.499 62.5426C101.056 62.2756 100.539 62.142 99.9482 62.142C99.3176 62.142 98.7636 62.2955 98.2863 62.6023C97.809 62.9034 97.4369 63.3011 97.1698 63.7955C96.9085 64.2841 96.7749 64.821 96.7693 65.4062V67.2216C96.7693 67.983 96.9085 68.6364 97.1869 69.1818C97.4653 69.7216 97.8545 70.1364 98.3545 70.4261C98.8545 70.7102 99.4397 70.8523 100.11 70.8523C100.559 70.8523 100.965 70.7898 101.329 70.6648C101.693 70.5341 102.008 70.3438 102.275 70.0938C102.542 69.8438 102.744 69.5341 102.88 69.1648L105.761 69.4886C105.579 70.25 105.232 70.9148 104.721 71.483C104.215 72.0455 103.568 72.483 102.778 72.7955C101.988 73.1023 101.085 73.2557 100.068 73.2557ZM118.365 63.3693L115.553 63.6761C115.473 63.392 115.334 63.125 115.135 62.875C114.942 62.625 114.681 62.4233 114.351 62.2699C114.022 62.1165 113.618 62.0398 113.141 62.0398C112.499 62.0398 111.959 62.179 111.522 62.4574C111.09 62.7358 110.877 63.0966 110.882 63.5398C110.877 63.9205 111.016 64.2301 111.3 64.4688C111.59 64.7074 112.067 64.9034 112.732 65.0568L114.965 65.5341C116.203 65.8011 117.124 66.2244 117.726 66.804C118.334 67.3835 118.641 68.142 118.647 69.0795C118.641 69.9034 118.399 70.6307 117.922 71.2614C117.45 71.8864 116.794 72.375 115.953 72.7273C115.112 73.0795 114.147 73.2557 113.056 73.2557C111.453 73.2557 110.164 72.9205 109.186 72.25C108.209 71.5739 107.627 70.6335 107.439 69.429L110.448 69.1392C110.584 69.7301 110.874 70.1761 111.317 70.4773C111.76 70.7784 112.337 70.929 113.047 70.929C113.78 70.929 114.368 70.7784 114.811 70.4773C115.26 70.1761 115.485 69.804 115.485 69.3608C115.485 68.9858 115.34 68.6761 115.05 68.4318C114.766 68.1875 114.323 68 113.72 67.8693L111.487 67.4006C110.232 67.1392 109.303 66.6989 108.7 66.0795C108.098 65.4545 107.8 64.6648 107.806 63.7102C107.8 62.9034 108.019 62.2045 108.462 61.6136C108.911 61.017 109.533 60.5568 110.328 60.233C111.129 59.9034 112.053 59.7386 113.098 59.7386C114.632 59.7386 115.84 60.0653 116.72 60.7188C117.607 61.3722 118.155 62.2557 118.365 63.3693ZM131.894 73.2557C130.587 73.2557 129.465 72.9688 128.527 72.3949C127.596 71.821 126.877 71.0284 126.371 70.017C125.871 69 125.621 67.8295 125.621 66.5057C125.621 65.1761 125.877 64.0028 126.388 62.9858C126.9 61.9631 127.621 61.1676 128.553 60.5994C129.49 60.0256 130.598 59.7386 131.877 59.7386C132.939 59.7386 133.88 59.9347 134.698 60.3267C135.522 60.7131 136.178 61.2614 136.667 61.9716C137.155 62.6761 137.434 63.5 137.502 64.4432H134.553C134.434 63.8125 134.15 63.2869 133.701 62.8665C133.258 62.4403 132.664 62.2273 131.919 62.2273C131.289 62.2273 130.735 62.3977 130.258 62.7386C129.78 63.0739 129.408 63.5568 129.141 64.1875C128.88 64.8182 128.749 65.5739 128.749 66.4545C128.749 67.3466 128.88 68.1136 129.141 68.7557C129.402 69.392 129.769 69.8835 130.24 70.2301C130.718 70.571 131.277 70.7415 131.919 70.7415C132.374 70.7415 132.78 70.6562 133.138 70.4858C133.502 70.3097 133.806 70.0568 134.05 69.7273C134.294 69.3977 134.462 68.9972 134.553 68.5256H137.502C137.428 69.4517 137.155 70.2727 136.684 70.9886C136.212 71.6989 135.57 72.2557 134.758 72.6591C133.945 73.0568 132.99 73.2557 131.894 73.2557ZM145.265 73.2557C143.987 73.2557 142.879 72.9744 141.942 72.4119C141.004 71.8494 140.277 71.0625 139.76 70.0511C139.248 69.0398 138.993 67.858 138.993 66.5057C138.993 65.1534 139.248 63.9687 139.76 62.9517C140.277 61.9347 141.004 61.1449 141.942 60.5824C142.879 60.0199 143.987 59.7386 145.265 59.7386C146.544 59.7386 147.652 60.0199 148.589 60.5824C149.527 61.1449 150.251 61.9347 150.763 62.9517C151.28 63.9687 151.538 65.1534 151.538 66.5057C151.538 67.858 151.28 69.0398 150.763 70.0511C150.251 71.0625 149.527 71.8494 148.589 72.4119C147.652 72.9744 146.544 73.2557 145.265 73.2557ZM145.283 70.7841C145.976 70.7841 146.555 70.5937 147.021 70.2131C147.487 69.8267 147.834 69.3097 148.061 68.6619C148.294 68.0142 148.41 67.2926 148.41 66.4972C148.41 65.696 148.294 64.9716 148.061 64.3239C147.834 63.6705 147.487 63.1506 147.021 62.7642C146.555 62.3778 145.976 62.1847 145.283 62.1847C144.572 62.1847 143.981 62.3778 143.51 62.7642C143.044 63.1506 142.694 63.6705 142.461 64.3239C142.234 64.9716 142.121 65.696 142.121 66.4972C142.121 67.2926 142.234 68.0142 142.461 68.6619C142.694 69.3097 143.044 69.8267 143.51 70.2131C143.981 70.5937 144.572 70.7841 145.283 70.7841ZM156.762 65.3295V73H153.677V59.9091H156.626V62.1335H156.779C157.08 61.4006 157.56 60.8182 158.219 60.3864C158.884 59.9545 159.705 59.7386 160.682 59.7386C161.586 59.7386 162.373 59.9318 163.043 60.3182C163.719 60.7045 164.242 61.2642 164.611 61.9972C164.986 62.7301 165.171 63.6193 165.165 64.6648V73H162.08V65.142C162.08 64.267 161.853 63.5824 161.398 63.0881C160.95 62.5937 160.327 62.3466 159.532 62.3466C158.992 62.3466 158.512 62.4659 158.092 62.7045C157.677 62.9375 157.35 63.2756 157.111 63.7188C156.878 64.1619 156.762 64.6989 156.762 65.3295ZM178.168 63.3693L175.356 63.6761C175.276 63.392 175.137 63.125 174.938 62.875C174.745 62.625 174.484 62.4233 174.154 62.2699C173.825 62.1165 173.421 62.0398 172.944 62.0398C172.302 62.0398 171.762 62.179 171.325 62.4574C170.893 62.7358 170.68 63.0966 170.685 63.5398C170.68 63.9205 170.819 64.2301 171.103 64.4688C171.393 64.7074 171.87 64.9034 172.535 65.0568L174.768 65.5341C176.006 65.8011 176.927 66.2244 177.529 66.804C178.137 67.3835 178.444 68.142 178.45 69.0795C178.444 69.9034 178.202 70.6307 177.725 71.2614C177.254 71.8864 176.597 72.375 175.756 72.7273C174.916 73.0795 173.95 73.2557 172.859 73.2557C171.256 73.2557 169.967 72.9205 168.989 72.25C168.012 71.5739 167.43 70.6335 167.242 69.429L170.251 69.1392C170.387 69.7301 170.677 70.1761 171.12 70.4773C171.563 70.7784 172.14 70.929 172.85 70.929C173.583 70.929 174.171 70.7784 174.614 70.4773C175.063 70.1761 175.288 69.804 175.288 69.3608C175.288 68.9858 175.143 68.6761 174.853 68.4318C174.569 68.1875 174.126 68 173.523 67.8693L171.291 67.4006C170.035 67.1392 169.106 66.6989 168.504 66.0795C167.901 65.4545 167.603 64.6648 167.609 63.7102C167.603 62.9034 167.822 62.2045 168.265 61.6136C168.714 61.017 169.336 60.5568 170.131 60.233C170.933 59.9034 171.856 59.7386 172.901 59.7386C174.435 59.7386 175.643 60.0653 176.523 60.7188C177.41 61.3722 177.958 62.2557 178.168 63.3693ZM187.051 59.9091V62.2955H179.525V59.9091H187.051ZM181.383 56.7727H184.468V69.0625C184.468 69.4773 184.531 69.7955 184.656 70.017C184.786 70.233 184.957 70.3807 185.167 70.4602C185.377 70.5398 185.61 70.5795 185.866 70.5795C186.059 70.5795 186.235 70.5653 186.394 70.5369C186.559 70.5085 186.684 70.483 186.769 70.4602L187.289 72.8722C187.124 72.929 186.889 72.9915 186.582 73.0597C186.281 73.1278 185.911 73.1676 185.474 73.179C184.701 73.2017 184.005 73.0852 183.386 72.8295C182.767 72.5682 182.275 72.1648 181.911 71.6193C181.553 71.0739 181.377 70.392 181.383 69.5739V56.7727ZM192.918 73.2642C192.088 73.2642 191.341 73.1165 190.676 72.821C190.017 72.5199 189.495 72.0767 189.108 71.4915C188.728 70.9062 188.537 70.1847 188.537 69.3267C188.537 68.5881 188.674 67.9773 188.946 67.4943C189.219 67.0114 189.591 66.625 190.063 66.3352C190.534 66.0455 191.066 65.8267 191.657 65.679C192.253 65.5256 192.87 65.4148 193.506 65.3466C194.273 65.267 194.895 65.196 195.372 65.1335C195.85 65.0653 196.196 64.9631 196.412 64.8267C196.634 64.6847 196.745 64.4659 196.745 64.1705V64.1193C196.745 63.4773 196.554 62.9801 196.174 62.6278C195.793 62.2756 195.245 62.0994 194.529 62.0994C193.773 62.0994 193.174 62.2642 192.73 62.5938C192.293 62.9233 191.997 63.3125 191.844 63.7614L188.963 63.3523C189.191 62.5568 189.566 61.892 190.088 61.358C190.611 60.8182 191.25 60.4148 192.006 60.1477C192.762 59.875 193.597 59.7386 194.512 59.7386C195.142 59.7386 195.77 59.8125 196.395 59.9602C197.02 60.108 197.591 60.3523 198.108 60.6932C198.625 61.0284 199.04 61.4858 199.353 62.0653C199.671 62.6449 199.83 63.3693 199.83 64.2386V73H196.864V71.2017H196.762C196.574 71.5653 196.31 71.9062 195.969 72.2244C195.634 72.5369 195.211 72.7898 194.699 72.983C194.193 73.1705 193.6 73.2642 192.918 73.2642ZM193.719 70.9972C194.338 70.9972 194.875 70.875 195.33 70.6307C195.784 70.3807 196.134 70.0511 196.378 69.642C196.628 69.233 196.753 68.7869 196.753 68.304V66.7614C196.657 66.8409 196.492 66.9148 196.259 66.983C196.032 67.0511 195.776 67.1108 195.492 67.1619C195.208 67.2131 194.926 67.2585 194.648 67.2983C194.37 67.3381 194.128 67.3722 193.924 67.4006C193.463 67.4631 193.051 67.5653 192.688 67.7074C192.324 67.8494 192.037 68.0483 191.827 68.304C191.617 68.554 191.512 68.8778 191.512 69.2756C191.512 69.8438 191.719 70.2727 192.134 70.5625C192.549 70.8523 193.077 70.9972 193.719 70.9972ZM205.537 65.3295V73H202.452V59.9091H205.401V62.1335H205.554C205.856 61.4006 206.336 60.8182 206.995 60.3864C207.659 59.9545 208.481 59.7386 209.458 59.7386C210.361 59.7386 211.148 59.9318 211.819 60.3182C212.495 60.7045 213.017 61.2642 213.387 61.9972C213.762 62.7301 213.946 63.6193 213.941 64.6648V73H210.856V65.142C210.856 64.267 210.628 63.5824 210.174 63.0881C209.725 62.5937 209.103 62.3466 208.307 62.3466C207.767 62.3466 207.287 62.4659 206.867 62.7045C206.452 62.9375 206.125 63.2756 205.887 63.7188C205.654 64.1619 205.537 64.6989 205.537 65.3295ZM223.134 59.9091V62.2955H215.608V59.9091H223.134ZM217.466 56.7727H220.552V69.0625C220.552 69.4773 220.614 69.7955 220.739 70.017C220.87 70.233 221.04 70.3807 221.251 70.4602C221.461 70.5398 221.694 70.5795 221.949 70.5795C222.143 70.5795 222.319 70.5653 222.478 70.5369C222.643 70.5085 222.768 70.483 222.853 70.4602L223.373 72.8722C223.208 72.929 222.972 72.9915 222.665 73.0597C222.364 73.1278 221.995 73.1676 221.557 73.179C220.785 73.2017 220.089 73.0852 219.469 72.8295C218.85 72.5682 218.358 72.1648 217.995 71.6193C217.637 71.0739 217.461 70.392 217.466 69.5739V56.7727ZM230.889 73.2557C229.577 73.2557 228.443 72.983 227.489 72.4375C226.54 71.8864 225.81 71.108 225.298 70.1023C224.787 69.0909 224.531 67.9006 224.531 66.5312C224.531 65.1847 224.787 64.0028 225.298 62.9858C225.815 61.9631 226.537 61.1676 227.463 60.5994C228.389 60.0256 229.477 59.7386 230.727 59.7386C231.534 59.7386 232.295 59.8693 233.011 60.1307C233.733 60.3864 234.369 60.7841 234.92 61.3239C235.477 61.8636 235.915 62.5511 236.233 63.3864C236.551 64.2159 236.71 65.2045 236.71 66.3523V67.2983H225.98V65.2188H233.753C233.747 64.6278 233.619 64.1023 233.369 63.642C233.119 63.1761 232.77 62.8097 232.321 62.5426C231.878 62.2756 231.361 62.142 230.77 62.142C230.139 62.142 229.585 62.2955 229.108 62.6023C228.631 62.9034 228.258 63.3011 227.991 63.7955C227.73 64.2841 227.597 64.821 227.591 65.4062V67.2216C227.591 67.983 227.73 68.6364 228.008 69.1818C228.287 69.7216 228.676 70.1364 229.176 70.4261C229.676 70.7102 230.261 70.8523 230.932 70.8523C231.381 70.8523 231.787 70.7898 232.15 70.6648C232.514 70.5341 232.829 70.3438 233.097 70.0938C233.364 69.8438 233.565 69.5341 233.702 69.1648L236.582 69.4886C236.4 70.25 236.054 70.9148 235.543 71.483C235.037 72.0455 234.389 72.483 233.599 72.7955C232.81 73.1023 231.906 73.2557 230.889 73.2557ZM249.187 63.3693L246.374 63.6761C246.295 63.392 246.156 63.125 245.957 62.875C245.764 62.625 245.502 62.4233 245.173 62.2699C244.843 62.1165 244.44 62.0398 243.962 62.0398C243.32 62.0398 242.781 62.179 242.343 62.4574C241.911 62.7358 241.698 63.0966 241.704 63.5398C241.698 63.9205 241.837 64.2301 242.121 64.4688C242.411 64.7074 242.889 64.9034 243.553 65.0568L245.786 65.5341C247.025 65.8011 247.945 66.2244 248.548 66.804C249.156 67.3835 249.462 68.142 249.468 69.0795C249.462 69.9034 249.221 70.6307 248.744 71.2614C248.272 71.8864 247.616 72.375 246.775 72.7273C245.934 73.0795 244.968 73.2557 243.877 73.2557C242.275 73.2557 240.985 72.9205 240.008 72.25C239.031 71.5739 238.448 70.6335 238.261 69.429L241.269 69.1392C241.406 69.7301 241.695 70.1761 242.139 70.4773C242.582 70.7784 243.158 70.929 243.869 70.929C244.602 70.929 245.19 70.7784 245.633 70.4773C246.082 70.1761 246.306 69.804 246.306 69.3608C246.306 68.9858 246.161 68.6761 245.871 68.4318C245.587 68.1875 245.144 68 244.542 67.8693L242.309 67.4006C241.053 67.1392 240.124 66.6989 239.522 66.0795C238.92 65.4545 238.621 64.6648 238.627 63.7102C238.621 62.9034 238.84 62.2045 239.283 61.6136C239.732 61.017 240.354 60.5568 241.15 60.233C241.951 59.9034 242.874 59.7386 243.92 59.7386C245.454 59.7386 246.661 60.0653 247.542 60.7188C248.428 61.3722 248.977 62.2557 249.187 63.3693Z" fill="#F5F1E9"/>
<path d="M143.118 27.1568L139.319 23.7732C138.219 22.7942 138.219 21.1904 139.319 20.2114L143.118 16.8256C144.218 15.8466 143.925 14.9358 142.467 14.7928L137.429 14.3154C135.972 14.179 135.185 12.9228 135.689 11.5302L138.362 4.08762C138.863 2.69062 138.249 2.18462 137 2.95682L131.058 6.63082C130.763 6.8146 130.434 6.93636 130.091 6.98865C129.748 7.04093 129.398 7.02266 129.062 6.93493C128.726 6.8472 128.411 6.69187 128.138 6.47843C127.864 6.265 127.636 5.99795 127.469 5.69362L125.318 1.85242C124.594 0.558825 123.399 0.554424 122.662 1.83482L120.663 5.31082C119.921 6.59783 118.225 7.14342 116.894 6.53402L113.374 4.91922C112.036 4.30322 111.013 5.01162 111.093 6.49442L111.282 10.0474C111.363 11.5302 110.268 13.0548 108.853 13.4376L105.454 14.3484C104.042 14.7312 103.782 15.8444 104.882 16.8234L108.681 20.2092C109.781 21.1882 109.781 22.792 108.681 23.771L104.882 27.1568C103.782 28.1358 104.072 29.0862 105.527 29.2622L110.136 29.821C111.59 29.997 112.399 31.295 111.935 32.7052L109.572 39.8728C109.108 41.283 109.77 41.8286 111.042 41.0938L116.461 37.9566C117.093 37.6061 117.833 37.5038 118.536 37.6698C119.24 37.8358 119.856 38.2581 120.264 38.8542L122.513 42.24C123.331 43.4698 124.561 43.4038 125.241 42.0904L127.219 38.2778C127.548 37.6453 128.111 37.1664 128.789 36.9432C129.466 36.7201 130.203 36.7703 130.844 37.0832L134.659 38.9906C135.975 39.644 136.984 38.9686 136.905 37.4902L136.714 33.9328C136.637 32.45 137.728 30.9298 139.147 30.547L142.542 29.6318C143.958 29.249 144.218 28.1358 143.118 27.1568ZM126.2 30.8H121.8V26.4H126.2V30.8ZM126.2 24.2H121.8V13.2H126.2V24.2Z" fill="#F5F1E9"/>
</svg>
