<svg width="260" height="79" viewBox="0 0 260 79" fill="none" xmlns="http://www.w3.org/2000/svg">
<path d="M1.72159 73V55.5455H13.0739V58.196H4.88352V62.9347H12.4858V65.5852H4.88352V70.3494H13.142V73H1.72159ZM18.7686 65.3295V73H15.6834V59.9091H18.6322V62.1335H18.7856C19.0868 61.4006 19.5669 60.8182 20.226 60.3864C20.8907 59.9545 21.7118 59.7386 22.689 59.7386C23.5924 59.7386 24.3794 59.9318 25.0498 60.3182C25.726 60.7045 26.2487 61.2642 26.618 61.9972C26.993 62.7301 27.1777 63.6193 27.172 64.6648V73H24.0868V65.142C24.0868 64.267 23.8595 63.5824 23.4049 63.0881C22.9561 62.5937 22.3339 62.3466 21.5385 62.3466C20.9987 62.3466 20.5186 62.4659 20.0981 62.7045C19.6834 62.9375 19.3566 63.2756 19.118 63.7188C18.8851 64.1619 18.7686 64.6989 18.7686 65.3295ZM36.3653 59.9091V62.2955H28.8397V59.9091H36.3653ZM30.6977 56.7727H33.7829V69.0625C33.7829 69.4773 33.8454 69.7955 33.9704 70.017C34.1011 70.233 34.2715 70.3807 34.4818 70.4602C34.692 70.5398 34.9249 70.5795 35.1806 70.5795C35.3738 70.5795 35.5499 70.5653 35.709 70.5369C35.8738 70.5085 35.9988 70.483 36.084 70.4602L36.6039 72.8722C36.4391 72.929 36.2034 72.9915 35.8965 73.0597C35.5954 73.1278 35.2261 73.1676 34.7886 73.179C34.0159 73.2017 33.3198 73.0852 32.7005 72.8295C32.0812 72.5682 31.5897 72.1648 31.2261 71.6193C30.8681 71.0739 30.692 70.392 30.6977 69.5739V56.7727ZM38.4655 73V59.9091H41.457V62.0909H41.5934C41.832 61.3352 42.2411 60.7528 42.8207 60.3438C43.4059 59.929 44.0735 59.7216 44.8235 59.7216C44.994 59.7216 45.1843 59.7301 45.3945 59.7472C45.6104 59.7585 45.7894 59.7784 45.9315 59.8068V62.6449C45.8008 62.5994 45.5934 62.5597 45.3093 62.5256C45.0309 62.4858 44.761 62.4659 44.4996 62.4659C43.9371 62.4659 43.4315 62.5881 42.9826 62.8324C42.5394 63.071 42.19 63.4034 41.9343 63.8295C41.6786 64.2557 41.5508 64.7472 41.5508 65.304V73H38.4655ZM52.7576 73.2557C51.4451 73.2557 50.3115 72.983 49.357 72.4375C48.4081 71.8864 47.678 71.108 47.1666 70.1023C46.6553 69.0909 46.3996 67.9006 46.3996 66.5312C46.3996 65.1847 46.6553 64.0028 47.1666 62.9858C47.6837 61.9631 48.4053 61.1676 49.3314 60.5994C50.2576 60.0256 51.3456 59.7386 52.5956 59.7386C53.4024 59.7386 54.1638 59.8693 54.8797 60.1307C55.6013 60.3864 56.2377 60.7841 56.7888 61.3239C57.3456 61.8636 57.7831 62.5511 58.1013 63.3864C58.4195 64.2159 58.5786 65.2045 58.5786 66.3523V67.2983H47.8485V65.2188H55.6212C55.6155 64.6278 55.4877 64.1023 55.2377 63.642C54.9877 63.1761 54.6382 62.8097 54.1894 62.5426C53.7462 62.2756 53.2291 62.142 52.6382 62.142C52.0076 62.142 51.4536 62.2955 50.9763 62.6023C50.499 62.9034 50.1269 63.3011 49.8598 63.7955C49.5985 64.2841 49.4649 64.821 49.4593 65.4062V67.2216C49.4593 67.983 49.5985 68.6364 49.8769 69.1818C50.1553 69.7216 50.5445 70.1364 51.0445 70.4261C51.5445 70.7102 52.1297 70.8523 52.8002 70.8523C53.249 70.8523 53.6553 70.7898 54.0189 70.6648C54.3826 70.5341 54.6979 70.3438 54.9649 70.0938C55.232 69.8438 55.4337 69.5341 55.5701 69.1648L58.4507 69.4886C58.2689 70.25 57.9223 70.9148 57.411 71.483C56.9053 72.0455 56.2576 72.483 55.4678 72.7955C54.678 73.1023 53.7746 73.2557 52.7576 73.2557ZM66.4018 78.1818C65.2939 78.1818 64.3422 78.0313 63.5467 77.7301C62.7513 77.4347 62.1121 77.0369 61.6291 76.5369C61.1462 76.0369 60.8109 75.483 60.6234 74.875L63.4018 74.2017C63.5268 74.4574 63.7087 74.7102 63.9473 74.9602C64.1859 75.2159 64.507 75.4261 64.9104 75.5909C65.3195 75.7614 65.8337 75.8466 66.453 75.8466C67.328 75.8466 68.0524 75.6335 68.6263 75.2074C69.2001 74.7869 69.4871 74.0938 69.4871 73.1278V70.6477H69.3337C69.1746 70.9659 68.9416 71.2926 68.6348 71.6278C68.3337 71.9631 67.9331 72.2443 67.4331 72.4716C66.9388 72.6989 66.3166 72.8125 65.5666 72.8125C64.5609 72.8125 63.649 72.5767 62.8308 72.1051C62.0183 71.6278 61.3706 70.9176 60.8876 69.9744C60.4104 69.0256 60.1717 67.8381 60.1717 66.4119C60.1717 64.9744 60.4104 63.7614 60.8876 62.7727C61.3706 61.7784 62.0212 61.0256 62.8393 60.5142C63.6575 59.9972 64.5695 59.7386 65.5751 59.7386C66.3422 59.7386 66.9729 59.8693 67.4672 60.1307C67.9672 60.3864 68.3649 60.696 68.6604 61.0597C68.9558 61.4176 69.1803 61.7557 69.3337 62.0739H69.5041V59.9091H72.5467V73.2131C72.5467 74.3324 72.2797 75.2585 71.7456 75.9915C71.2115 76.7244 70.4814 77.2727 69.5553 77.6364C68.6291 78 67.578 78.1818 66.4018 78.1818ZM66.4274 70.392C67.0808 70.392 67.6376 70.233 68.0979 69.9148C68.5581 69.5966 68.9075 69.1392 69.1462 68.5426C69.3848 67.946 69.5041 67.2301 69.5041 66.3949C69.5041 65.571 69.3848 64.8494 69.1462 64.2301C68.9132 63.6108 68.5666 63.1307 68.1064 62.7898C67.6518 62.4432 67.0922 62.2699 66.4274 62.2699C65.7399 62.2699 65.166 62.4489 64.7058 62.8068C64.2456 63.1648 63.899 63.6562 63.666 64.2812C63.4331 64.9006 63.3166 65.6051 63.3166 66.3949C63.3166 67.196 63.4331 67.8977 63.666 68.5C63.9047 69.0966 64.2541 69.5625 64.7143 69.8977C65.1803 70.2273 65.7513 70.392 66.4274 70.392ZM78.9957 73.2642C78.1662 73.2642 77.419 73.1165 76.7542 72.821C76.0951 72.5199 75.5724 72.0767 75.1861 71.4915C74.8054 70.9062 74.615 70.1847 74.615 69.3267C74.615 68.5881 74.7514 67.9773 75.0241 67.4943C75.2968 67.0114 75.669 66.625 76.1406 66.3352C76.6122 66.0455 77.1434 65.8267 77.7343 65.679C78.3309 65.5256 78.9474 65.4148 79.5838 65.3466C80.3508 65.267 80.973 65.196 81.4503 65.1335C81.9275 65.0653 82.2741 64.9631 82.49 64.8267C82.7116 64.6847 82.8224 64.4659 82.8224 64.1705V64.1193C82.8224 63.4773 82.6321 62.9801 82.2514 62.6278C81.8707 62.2756 81.3224 62.0994 80.6065 62.0994C79.8508 62.0994 79.2514 62.2642 78.8082 62.5938C78.3707 62.9233 78.0753 63.3125 77.9218 63.7614L75.0412 63.3523C75.2684 62.5568 75.6434 61.892 76.1662 61.358C76.6889 60.8182 77.3281 60.4148 78.0838 60.1477C78.8395 59.875 79.6747 59.7386 80.5895 59.7386C81.2201 59.7386 81.848 59.8125 82.473 59.9602C83.098 60.108 83.669 60.3523 84.1861 60.6932C84.7031 61.0284 85.1179 61.4858 85.4304 62.0653C85.7486 62.6449 85.9076 63.3693 85.9076 64.2386V73H82.9417V71.2017H82.8395C82.652 71.5653 82.3878 71.9062 82.0468 72.2244C81.7116 72.5369 81.2883 72.7898 80.777 72.983C80.2713 73.1705 79.6775 73.2642 78.9957 73.2642ZM79.7968 70.9972C80.4162 70.9972 80.9531 70.875 81.4076 70.6307C81.8622 70.3807 82.2116 70.0511 82.4559 69.642C82.7059 69.233 82.8309 68.7869 82.8309 68.304V66.7614C82.7343 66.8409 82.5696 66.9148 82.3366 66.983C82.1093 67.0511 81.8537 67.1108 81.5696 67.1619C81.2855 67.2131 81.0042 67.2585 80.7258 67.2983C80.4474 67.3381 80.2059 67.3722 80.0014 67.4006C79.5412 67.4631 79.1292 67.5653 78.7656 67.7074C78.402 67.8494 78.115 68.0483 77.9048 68.304C77.6946 68.554 77.5895 68.8778 77.5895 69.2756C77.5895 69.8438 77.7968 70.2727 78.2116 70.5625C78.6264 70.8523 79.1548 70.9972 79.7968 70.9972ZM104.35 63.3693L101.537 63.6761C101.458 63.392 101.318 63.125 101.12 62.875C100.926 62.625 100.665 62.4233 100.335 62.2699C100.006 62.1165 99.6025 62.0398 99.1252 62.0398C98.4832 62.0398 97.9434 62.179 97.5059 62.4574C97.0741 62.7358 96.861 63.0966 96.8667 63.5398C96.861 63.9205 97.0002 64.2301 97.2843 64.4688C97.5741 64.7074 98.0513 64.9034 98.7161 65.0568L100.949 65.5341C102.188 65.8011 103.108 66.2244 103.71 66.804C104.318 67.3835 104.625 68.142 104.631 69.0795C104.625 69.9034 104.384 70.6307 103.906 71.2614C103.435 71.8864 102.779 72.375 101.938 72.7273C101.097 73.0795 100.131 73.2557 99.04 73.2557C97.4377 73.2557 96.1479 72.9205 95.1707 72.25C94.1934 71.5739 93.611 70.6335 93.4235 69.429L96.432 69.1392C96.5684 69.7301 96.8582 70.1761 97.3013 70.4773C97.7445 70.7784 98.3212 70.929 99.0315 70.929C99.7644 70.929 100.352 70.7784 100.796 70.4773C101.245 70.1761 101.469 69.804 101.469 69.3608C101.469 68.9858 101.324 68.6761 101.034 68.4318C100.75 68.1875 100.307 68 99.7047 67.8693L97.4718 67.4006C96.2161 67.1392 95.2871 66.6989 94.6849 66.0795C94.0826 65.4545 93.7843 64.6648 93.79 63.7102C93.7843 62.9034 94.003 62.2045 94.4462 61.6136C94.8951 61.017 95.5172 60.5568 96.3127 60.233C97.1138 59.9034 98.0371 59.7386 99.0826 59.7386C100.617 59.7386 101.824 60.0653 102.705 60.7188C103.591 61.3722 104.139 62.2557 104.35 63.3693ZM112.49 73.2557C111.178 73.2557 110.044 72.983 109.09 72.4375C108.141 71.8864 107.411 71.108 106.899 70.1023C106.388 69.0909 106.132 67.9006 106.132 66.5312C106.132 65.1847 106.388 64.0028 106.899 62.9858C107.417 61.9631 108.138 61.1676 109.064 60.5994C109.99 60.0256 111.078 59.7386 112.328 59.7386C113.135 59.7386 113.897 59.8693 114.613 60.1307C115.334 60.3864 115.97 60.7841 116.522 61.3239C117.078 61.8636 117.516 62.5511 117.834 63.3864C118.152 64.2159 118.311 65.2045 118.311 66.3523V67.2983H107.581V65.2188H115.354C115.348 64.6278 115.22 64.1023 114.97 63.642C114.72 63.1761 114.371 62.8097 113.922 62.5426C113.479 62.2756 112.962 62.142 112.371 62.142C111.74 62.142 111.186 62.2955 110.709 62.6023C110.232 62.9034 109.86 63.3011 109.593 63.7955C109.331 64.2841 109.198 64.821 109.192 65.4062V67.2216C109.192 67.983 109.331 68.6364 109.61 69.1818C109.888 69.7216 110.277 70.1364 110.777 70.4261C111.277 70.7102 111.863 70.8523 112.533 70.8523C112.982 70.8523 113.388 70.7898 113.752 70.6648C114.115 70.5341 114.431 70.3438 114.698 70.0938C114.965 69.8438 115.167 69.5341 115.303 69.1648L118.184 69.4886C118.002 70.25 117.655 70.9148 117.144 71.483C116.638 72.0455 115.99 72.483 115.201 72.7955C114.411 73.1023 113.507 73.2557 112.49 73.2557ZM126.135 78.1818C125.027 78.1818 124.075 78.0313 123.28 77.7301C122.484 77.4347 121.845 77.0369 121.362 76.5369C120.879 76.0369 120.544 75.483 120.356 74.875L123.135 74.2017C123.26 74.4574 123.441 74.7102 123.68 74.9602C123.919 75.2159 124.24 75.4261 124.643 75.5909C125.052 75.7614 125.566 75.8466 126.186 75.8466C127.061 75.8466 127.785 75.6335 128.359 75.2074C128.933 74.7869 129.22 74.0938 129.22 73.1278V70.6477H129.066C128.907 70.9659 128.674 71.2926 128.368 71.6278C128.066 71.9631 127.666 72.2443 127.166 72.4716C126.672 72.6989 126.049 72.8125 125.299 72.8125C124.294 72.8125 123.382 72.5767 122.564 72.1051C121.751 71.6278 121.103 70.9176 120.62 69.9744C120.143 69.0256 119.905 67.8381 119.905 66.4119C119.905 64.9744 120.143 63.7614 120.62 62.7727C121.103 61.7784 121.754 61.0256 122.572 60.5142C123.39 59.9972 124.302 59.7386 125.308 59.7386C126.075 59.7386 126.706 59.8693 127.2 60.1307C127.7 60.3864 128.098 60.696 128.393 61.0597C128.689 61.4176 128.913 61.7557 129.066 62.0739H129.237V59.9091H132.28V73.2131C132.28 74.3324 132.012 75.2585 131.478 75.9915C130.944 76.7244 130.214 77.2727 129.288 77.6364C128.362 78 127.311 78.1818 126.135 78.1818ZM126.16 70.392C126.814 70.392 127.37 70.233 127.831 69.9148C128.291 69.5966 128.64 69.1392 128.879 68.5426C129.118 67.946 129.237 67.2301 129.237 66.3949C129.237 65.571 129.118 64.8494 128.879 64.2301C128.646 63.6108 128.299 63.1307 127.839 62.7898C127.385 62.4432 126.825 62.2699 126.16 62.2699C125.473 62.2699 124.899 62.4489 124.439 62.8068C123.978 63.1648 123.632 63.6562 123.399 64.2812C123.166 64.9006 123.049 65.6051 123.049 66.3949C123.049 67.196 123.166 67.8977 123.399 68.5C123.637 69.0966 123.987 69.5625 124.447 69.8977C124.913 70.2273 125.484 70.392 126.16 70.392ZM143.305 67.4943V59.9091H146.39V73H143.399V70.6733H143.263C142.967 71.4062 142.481 72.0057 141.805 72.4716C141.135 72.9375 140.308 73.1705 139.325 73.1705C138.467 73.1705 137.709 72.9801 137.05 72.5994C136.396 72.2131 135.885 71.6534 135.515 70.9205C135.146 70.1818 134.961 69.2898 134.961 68.2443V59.9091H138.047V67.767C138.047 68.5966 138.274 69.2557 138.729 69.7443C139.183 70.233 139.78 70.4773 140.518 70.4773C140.973 70.4773 141.413 70.3665 141.839 70.1449C142.265 69.9233 142.615 69.5938 142.888 69.1562C143.166 68.7131 143.305 68.1591 143.305 67.4943ZM149.083 73V59.9091H152.075V62.0909H152.211C152.45 61.3352 152.859 60.7528 153.438 60.3438C154.023 59.929 154.691 59.7216 155.441 59.7216C155.611 59.7216 155.802 59.7301 156.012 59.7472C156.228 59.7585 156.407 59.7784 156.549 59.8068V62.6449C156.418 62.5994 156.211 62.5597 155.927 62.5256C155.648 62.4858 155.379 62.4659 155.117 62.4659C154.555 62.4659 154.049 62.5881 153.6 62.8324C153.157 63.071 152.807 63.4034 152.552 63.8295C152.296 64.2557 152.168 64.7472 152.168 65.304V73H149.083ZM161.651 73.2642C160.822 73.2642 160.075 73.1165 159.41 72.821C158.751 72.5199 158.228 72.0767 157.842 71.4915C157.461 70.9062 157.271 70.1847 157.271 69.3267C157.271 68.5881 157.407 67.9773 157.68 67.4943C157.952 67.0114 158.325 66.625 158.796 66.3352C159.268 66.0455 159.799 65.8267 160.39 65.679C160.987 65.5256 161.603 65.4148 162.239 65.3466C163.006 65.267 163.629 65.196 164.106 65.1335C164.583 65.0653 164.93 64.9631 165.146 64.8267C165.367 64.6847 165.478 64.4659 165.478 64.1705V64.1193C165.478 63.4773 165.288 62.9801 164.907 62.6278C164.526 62.2756 163.978 62.0994 163.262 62.0994C162.506 62.0994 161.907 62.2642 161.464 62.5938C161.026 62.9233 160.731 63.3125 160.577 63.7614L157.697 63.3523C157.924 62.5568 158.299 61.892 158.822 61.358C159.345 60.8182 159.984 60.4148 160.739 60.1477C161.495 59.875 162.33 59.7386 163.245 59.7386C163.876 59.7386 164.504 59.8125 165.129 59.9602C165.754 60.108 166.325 60.3523 166.842 60.6932C167.359 61.0284 167.773 61.4858 168.086 62.0653C168.404 62.6449 168.563 63.3693 168.563 64.2386V73H165.597V71.2017H165.495C165.308 71.5653 165.043 71.9062 164.702 72.2244C164.367 72.5369 163.944 72.7898 163.433 72.983C162.927 73.1705 162.333 73.2642 161.651 73.2642ZM162.452 70.9972C163.072 70.9972 163.609 70.875 164.063 70.6307C164.518 70.3807 164.867 70.0511 165.112 69.642C165.362 69.233 165.487 68.7869 165.487 68.304V66.7614C165.39 66.8409 165.225 66.9148 164.992 66.983C164.765 67.0511 164.509 67.1108 164.225 67.1619C163.941 67.2131 163.66 67.2585 163.381 67.2983C163.103 67.3381 162.862 67.3722 162.657 67.4006C162.197 67.4631 161.785 67.5653 161.421 67.7074C161.058 67.8494 160.771 68.0483 160.56 68.304C160.35 68.554 160.245 68.8778 160.245 69.2756C160.245 69.8438 160.452 70.2727 160.867 70.5625C161.282 70.8523 161.81 70.9972 162.452 70.9972ZM182.454 73.2557C181.142 73.2557 180.008 72.983 179.054 72.4375C178.105 71.8864 177.375 71.108 176.863 70.1023C176.352 69.0909 176.096 67.9006 176.096 66.5312C176.096 65.1847 176.352 64.0028 176.863 62.9858C177.38 61.9631 178.102 61.1676 179.028 60.5994C179.954 60.0256 181.042 59.7386 182.292 59.7386C183.099 59.7386 183.86 59.8693 184.576 60.1307C185.298 60.3864 185.934 60.7841 186.485 61.3239C187.042 61.8636 187.48 62.5511 187.798 63.3864C188.116 64.2159 188.275 65.2045 188.275 66.3523V67.2983H177.545V65.2188H185.318C185.312 64.6278 185.184 64.1023 184.934 63.642C184.684 63.1761 184.335 62.8097 183.886 62.5426C183.443 62.2756 182.926 62.142 182.335 62.142C181.704 62.142 181.15 62.2955 180.673 62.6023C180.196 62.9034 179.823 63.3011 179.556 63.7955C179.295 64.2841 179.162 64.821 179.156 65.4062V67.2216C179.156 67.983 179.295 68.6364 179.573 69.1818C179.852 69.7216 180.241 70.1364 180.741 70.4261C181.241 70.7102 181.826 70.8523 182.497 70.8523C182.946 70.8523 183.352 70.7898 183.715 70.6648C184.079 70.5341 184.394 70.3438 184.662 70.0938C184.929 69.8438 185.13 69.5341 185.267 69.1648L188.147 69.4886C187.965 70.25 187.619 70.9148 187.108 71.483C186.602 72.0455 185.954 72.483 185.164 72.7955C184.375 73.1023 183.471 73.2557 182.454 73.2557ZM200.736 73.2301C199.708 73.2301 198.787 72.9659 197.975 72.4375C197.162 71.9091 196.52 71.142 196.049 70.1364C195.577 69.1307 195.341 67.9091 195.341 66.4716C195.341 65.017 195.58 63.7898 196.057 62.7898C196.54 61.7841 197.191 61.0256 198.009 60.5142C198.827 59.9972 199.739 59.7386 200.745 59.7386C201.512 59.7386 202.143 59.8693 202.637 60.1307C203.131 60.3864 203.523 60.696 203.813 61.0597C204.103 61.4176 204.327 61.7557 204.486 62.0739H204.614V55.5455H207.708V73H204.674V70.9375H204.486C204.327 71.2557 204.097 71.5937 203.796 71.9517C203.495 72.304 203.097 72.6051 202.603 72.8551C202.108 73.1051 201.486 73.2301 200.736 73.2301ZM201.597 70.6989C202.251 70.6989 202.807 70.5227 203.268 70.1705C203.728 69.8125 204.077 69.3153 204.316 68.679C204.554 68.0426 204.674 67.3011 204.674 66.4545C204.674 65.608 204.554 64.8722 204.316 64.2472C204.083 63.6222 203.736 63.1364 203.276 62.7898C202.822 62.4432 202.262 62.2699 201.597 62.2699C200.91 62.2699 200.336 62.4489 199.876 62.8068C199.415 63.1648 199.069 63.6591 198.836 64.2898C198.603 64.9205 198.486 65.642 198.486 66.4545C198.486 67.2727 198.603 68.0028 198.836 68.6449C199.074 69.2812 199.424 69.7841 199.884 70.1534C200.35 70.517 200.921 70.6989 201.597 70.6989ZM210.516 73V59.9091H213.601V73H210.516ZM212.067 58.0511C211.578 58.0511 211.158 57.8892 210.805 57.5653C210.453 57.2358 210.277 56.8409 210.277 56.3807C210.277 55.9148 210.453 55.5199 210.805 55.196C211.158 54.8665 211.578 54.7017 212.067 54.7017C212.561 54.7017 212.981 54.8665 213.328 55.196C213.68 55.5199 213.856 55.9148 213.856 56.3807C213.856 56.8409 213.68 57.2358 213.328 57.5653C212.981 57.8892 212.561 58.0511 212.067 58.0511ZM216.293 73V59.9091H219.285V62.0909H219.421C219.66 61.3352 220.069 60.7528 220.648 60.3438C221.234 59.929 221.901 59.7216 222.651 59.7216C222.822 59.7216 223.012 59.7301 223.222 59.7472C223.438 59.7585 223.617 59.7784 223.759 59.8068V62.6449C223.629 62.5994 223.421 62.5597 223.137 62.5256C222.859 62.4858 222.589 62.4659 222.327 62.4659C221.765 62.4659 221.259 62.5881 220.81 62.8324C220.367 63.071 220.018 63.4034 219.762 63.8295C219.506 64.2557 219.379 64.7472 219.379 65.304V73H216.293ZM230.585 73.2557C229.273 73.2557 228.139 72.983 227.185 72.4375C226.236 71.8864 225.506 71.108 224.994 70.1023C224.483 69.0909 224.227 67.9006 224.227 66.5312C224.227 65.1847 224.483 64.0028 224.994 62.9858C225.511 61.9631 226.233 61.1676 227.159 60.5994C228.085 60.0256 229.173 59.7386 230.423 59.7386C231.23 59.7386 231.992 59.8693 232.708 60.1307C233.429 60.3864 234.065 60.7841 234.617 61.3239C235.173 61.8636 235.611 62.5511 235.929 63.3864C236.247 64.2159 236.406 65.2045 236.406 66.3523V67.2983H225.676V65.2188H233.449C233.443 64.6278 233.315 64.1023 233.065 63.642C232.815 63.1761 232.466 62.8097 232.017 62.5426C231.574 62.2756 231.057 62.142 230.466 62.142C229.835 62.142 229.281 62.2955 228.804 62.6023C228.327 62.9034 227.955 63.3011 227.688 63.7955C227.426 64.2841 227.293 64.821 227.287 65.4062V67.2216C227.287 67.983 227.426 68.6364 227.705 69.1818C227.983 69.7216 228.372 70.1364 228.872 70.4261C229.372 70.7102 229.958 70.8523 230.628 70.8523C231.077 70.8523 231.483 70.7898 231.847 70.6648C232.21 70.5341 232.526 70.3438 232.793 70.0938C233.06 69.8438 233.261 69.5341 233.398 69.1648L236.279 69.4886C236.097 70.25 235.75 70.9148 235.239 71.483C234.733 72.0455 234.085 72.483 233.296 72.7955C232.506 73.1023 231.602 73.2557 230.585 73.2557ZM245.073 59.9091V62.2955H237.548V59.9091H245.073ZM239.406 56.7727H242.491V69.0625C242.491 69.4773 242.554 69.7955 242.679 70.017C242.809 70.233 242.98 70.3807 243.19 70.4602C243.4 70.5398 243.633 70.5795 243.889 70.5795C244.082 70.5795 244.258 70.5653 244.417 70.5369C244.582 70.5085 244.707 70.483 244.792 70.4602L245.312 72.8722C245.147 72.929 244.911 72.9915 244.605 73.0597C244.304 73.1278 243.934 73.1676 243.497 73.179C242.724 73.2017 242.028 73.0852 241.409 72.8295C240.789 72.5682 240.298 72.1648 239.934 71.6193C239.576 71.0739 239.4 70.392 239.406 69.5739V56.7727ZM250.941 73.2642C250.111 73.2642 249.364 73.1165 248.699 72.821C248.04 72.5199 247.517 72.0767 247.131 71.4915C246.75 70.9062 246.56 70.1847 246.56 69.3267C246.56 68.5881 246.696 67.9773 246.969 67.4943C247.242 67.0114 247.614 66.625 248.086 66.3352C248.557 66.0455 249.088 65.8267 249.679 65.679C250.276 65.5256 250.892 65.4148 251.529 65.3466C252.296 65.267 252.918 65.196 253.395 65.1335C253.873 65.0653 254.219 64.9631 254.435 64.8267C254.657 64.6847 254.767 64.4659 254.767 64.1705V64.1193C254.767 63.4773 254.577 62.9801 254.196 62.6278C253.816 62.2756 253.267 62.0994 252.552 62.0994C251.796 62.0994 251.196 62.2642 250.753 62.5938C250.316 62.9233 250.02 63.3125 249.867 63.7614L246.986 63.3523C247.213 62.5568 247.588 61.892 248.111 61.358C248.634 60.8182 249.273 60.4148 250.029 60.1477C250.784 59.875 251.62 59.7386 252.534 59.7386C253.165 59.7386 253.793 59.8125 254.418 59.9602C255.043 60.108 255.614 60.3523 256.131 60.6932C256.648 61.0284 257.063 61.4858 257.375 62.0653C257.694 62.6449 257.853 63.3693 257.853 64.2386V73H254.887V71.2017H254.784C254.597 71.5653 254.333 71.9062 253.992 72.2244C253.657 72.5369 253.233 72.7898 252.722 72.983C252.216 73.1705 251.623 73.2642 250.941 73.2642ZM251.742 70.9972C252.361 70.9972 252.898 70.875 253.353 70.6307C253.807 70.3807 254.157 70.0511 254.401 69.642C254.651 69.233 254.776 68.7869 254.776 68.304V66.7614C254.679 66.8409 254.515 66.9148 254.282 66.983C254.054 67.0511 253.799 67.1108 253.515 67.1619C253.23 67.2131 252.949 67.2585 252.671 67.2983C252.392 67.3381 252.151 67.3722 251.946 67.4006C251.486 67.4631 251.074 67.5653 250.711 67.7074C250.347 67.8494 250.06 68.0483 249.85 68.304C249.64 68.554 249.534 68.8778 249.534 69.2756C249.534 69.8438 249.742 70.2727 250.157 70.5625C250.571 70.8523 251.1 70.9972 251.742 70.9972Z" fill="#F5F1E9"/>
<path d="M147.538 11.858L133.788 4.29551C133.585 4.18381 133.357 4.12524 133.125 4.12524C132.893 4.12524 132.665 4.18381 132.462 4.29551L118.712 11.858C118.497 11.9767 118.317 12.1511 118.192 12.363C118.067 12.5748 118 12.8164 118 13.0625C118 13.3086 118.067 13.5502 118.192 13.7621C118.317 13.9739 118.497 14.1483 118.712 14.267L131.75 21.4376V36.1763L127.576 33.88L126.25 36.2876L132.462 39.7045C132.665 39.8162 132.893 39.8748 133.125 39.8748C133.357 39.8748 133.585 39.8162 133.788 39.7045L147.538 32.142C147.753 32.0234 147.933 31.849 148.059 31.6371C148.184 31.4253 148.25 31.1837 148.25 30.9375V13.0625C148.25 12.8164 148.184 12.5747 148.059 12.3629C147.933 12.151 147.753 11.9766 147.538 11.858ZM133.125 7.07026L144.022 13.0625L133.125 19.0548L122.228 13.0625L133.125 7.07026ZM145.5 30.1249L134.5 36.1749V21.4363L145.5 15.3863V30.1249Z" fill="#F5F1E9"/>
<path d="M120.75 22H109.75V19.25H120.75V22ZM123.5 33H112.5V30.25H123.5V33ZM126.25 27.5H115.25V24.75H126.25V27.5Z" fill="#F5F1E9"/>
</svg>
