<svg width="33" height="42" viewBox="0 0 33 42" fill="none" xmlns="http://www.w3.org/2000/svg">
<path d="M29.1923 11.055V1.5C29.1923 1.10218 29.0586 0.720644 28.8206 0.43934C28.5825 0.158035 28.2597 0 27.9231 0H24.1154V3H26.6538V13.08C26.6538 13.08 30.4615 13.8405 30.4615 19.5V39H26.6538V42H31.7308C32.0674 42 32.3902 41.842 32.6283 41.5607C32.8663 41.2794 33 40.8978 33 40.5V19.5C33 14.322 30.5466 11.964 29.1923 11.055ZM20.3077 11.055V1.5C20.3077 1.10218 20.174 0.720644 19.9359 0.43934C19.6979 0.158035 19.3751 0 19.0385 0H15.2308V3H17.7692V13.08C17.7692 13.08 21.5769 13.8405 21.5769 19.5V39H17.7692V42H22.8462C23.1828 42 23.5056 41.842 23.7436 41.5607C23.9817 41.2794 24.1154 40.8978 24.1154 40.5V19.5C24.1154 14.322 21.662 11.964 20.3077 11.055ZM11.4231 11.055V1.5C11.4231 1.10218 11.2894 0.720644 11.0513 0.43934C10.8133 0.158035 10.4905 0 10.1538 0H5.07692C4.7403 0 4.41747 0.158035 4.17944 0.43934C3.94141 0.720644 3.80769 1.10218 3.80769 1.5V11.055C2.45342 11.964 0 14.322 0 19.5V40.5C0 40.8978 0.133722 41.2794 0.371749 41.5607C0.609776 41.842 0.93261 42 1.26923 42H13.9615C14.2982 42 14.621 41.842 14.859 41.5607C15.097 41.2794 15.2308 40.8978 15.2308 40.5V19.5C15.2308 14.322 12.7773 11.964 11.4231 11.055ZM12.6923 39H2.53846V19.5C2.53846 13.842 6.34615 13.08 6.34615 13.08V3H8.88461V13.08C8.88461 13.08 12.6923 13.842 12.6923 19.5V39Z" fill="#F5F1E9"/>
</svg>
