<svg width="32" height="42" viewBox="0 0 32 42" fill="none" xmlns="http://www.w3.org/2000/svg">
<path d="M2.46154 39H8V32.25H2.46154V39ZM9.23077 39H15.3846V32.25H9.23077V39ZM2.46154 30.75H8V23.25H2.46154V30.75ZM9.23077 30.75H15.3846V23.25H9.23077V30.75ZM2.46154 21.75H8V15H2.46154V21.75ZM16.6154 39H22.7692V32.25H16.6154V39ZM9.23077 21.75H15.3846V15H9.23077V21.75ZM24 39H29.5385V32.25H24V39ZM16.6154 30.75H22.7692V23.25H16.6154V30.75ZM9.84615 10.5V3.75C9.84615 3.54688 9.78526 3.37109 9.66346 3.22266C9.54167 3.07422 9.39744 3 9.23077 3H8C7.83333 3 7.6891 3.07422 7.56731 3.22266C7.44551 3.37109 7.38462 3.54688 7.38462 3.75V10.5C7.38462 10.7031 7.44551 10.8789 7.56731 11.0273C7.6891 11.1758 7.83333 11.25 8 11.25H9.23077C9.39744 11.25 9.54167 11.1758 9.66346 11.0273C9.78526 10.8789 9.84615 10.7031 9.84615 10.5ZM24 30.75H29.5385V23.25H24V30.75ZM16.6154 21.75H22.7692V15H16.6154V21.75ZM24 21.75H29.5385V15H24V21.75ZM24.6154 10.5V3.75C24.6154 3.54688 24.5545 3.37109 24.4327 3.22266C24.3109 3.07422 24.1667 3 24 3H22.7692C22.6026 3 22.4583 3.07422 22.3365 3.22266C22.2147 3.37109 22.1538 3.54688 22.1538 3.75V10.5C22.1538 10.7031 22.2147 10.8789 22.3365 11.0273C22.4583 11.1758 22.6026 11.25 22.7692 11.25H24C24.1667 11.25 24.3109 11.1758 24.4327 11.0273C24.5545 10.8789 24.6154 10.7031 24.6154 10.5ZM32 9V39C32 39.8125 31.7564 40.5156 31.2692 41.1094C30.7821 41.7031 30.2051 42 29.5385 42H2.46154C1.79487 42 1.21795 41.7031 0.730769 41.1094C0.24359 40.5156 0 39.8125 0 39V9C0 8.1875 0.24359 7.48438 0.730769 6.89062C1.21795 6.29688 1.79487 6 2.46154 6H4.92308V3.75C4.92308 2.71875 5.22436 1.83594 5.82692 1.10156C6.42949 0.367188 7.15385 0 8 0H9.23077C10.0769 0 10.8013 0.367188 11.4038 1.10156C12.0064 1.83594 12.3077 2.71875 12.3077 3.75V6H19.6923V3.75C19.6923 2.71875 19.9936 1.83594 20.5962 1.10156C21.1987 0.367188 21.9231 0 22.7692 0H24C24.8462 0 25.5705 0.367188 26.1731 1.10156C26.7756 1.83594 27.0769 2.71875 27.0769 3.75V6H29.5385C30.2051 6 30.7821 6.29688 31.2692 6.89062C31.7564 7.48438 32 8.1875 32 9Z" fill="#F5F1E9"/>
</svg>
